<svg width="185" height="185" viewBox="0 0 185 185" fill="none" xmlns="http://www.w3.org/2000/svg">
<circle cx="90" cy="90" r="90" fill="black"/>
<path d="M47.7334 74.4556C51.4689 75.951 55.5611 76.3171 59.5027 75.5086C63.4444 74.6995 67.0616 72.752 69.9071 69.9071C72.752 67.0616 74.6995 63.4444 75.5086 59.5027C76.3171 55.5611 75.951 51.4689 74.4556 47.7334C78.8019 46.5632 82.6438 43.9988 85.3917 40.434C88.1396 36.8692 89.6415 32.5009 89.6667 28C101.863 28 113.786 31.6167 123.927 38.3927C134.068 45.1687 141.972 54.7998 146.639 66.0678C151.307 77.3361 152.528 89.7352 150.148 101.697C147.769 113.66 141.896 124.647 133.272 133.272C124.647 141.896 113.66 147.769 101.697 150.148C89.7352 152.528 77.3361 151.307 66.0678 146.639C54.7998 141.972 45.1687 134.068 38.3927 123.927C31.6167 113.786 28 101.863 28 89.6667C32.5009 89.6415 36.8692 88.1396 40.434 85.3917C43.9988 82.6438 46.5632 78.8019 47.7334 74.4556Z" stroke="url(#paint0_linear_2_11)" stroke-width="12" stroke-linecap="round" stroke-linejoin="round"/>
<defs>
<linearGradient id="paint0_linear_2_11" x1="89.6667" y1="28" x2="89.6667" y2="151.333" gradientUnits="userSpaceOnUse">
<stop stop-color="white"/>
<stop offset="1" stop-color="#DCE4DD"/>
</linearGradient>
</defs>
</svg>
