<svg xmlns="http://www.w3.org/2000/svg" width="16" height="16" viewBox="0 0 16 16" fill="none">
  <path d="M3.92 6.52C4.28346 6.66548 4.68162 6.7011 5.06512 6.62243C5.44863 6.54376 5.80061 6.35426 6.07744 6.07744C6.35426 5.80061 6.54376 5.44863 6.62243 5.06512C6.7011 4.68162 6.66548 4.28346 6.52 3.92C6.94287 3.80614 7.31669 3.55664 7.58405 3.20979C7.85141 2.86294 7.99754 2.43793 8 2C9.18669 2 10.3467 2.35189 11.3334 3.01118C12.3201 3.67047 13.0892 4.60754 13.5433 5.7039C13.9974 6.80026 14.1162 8.00666 13.8847 9.17054C13.6532 10.3344 13.0818 11.4035 12.2426 12.2426C11.4035 13.0818 10.3344 13.6532 9.17054 13.8847C8.00666 14.1162 6.80026 13.9974 5.7039 13.5433C4.60754 13.0892 3.67047 12.3201 3.01118 11.3334C2.35189 10.3467 2 9.18669 2 8C2.43793 7.99754 2.86294 7.85141 3.20979 7.58405C3.55664 7.31669 3.80614 6.94287 3.92 6.52Z" stroke="white" stroke-width="1.5" stroke-linecap="round" stroke-linejoin="round"/>
</svg>